Coordinates
version=1
nRows=15
nColumns=23
inDegrees=yes

Units are S.I. units (second, meters, Newtons, ...)
If the header above contains a line with 'inDegrees', this indicates whether rotational values are in degrees (yes) or radians (no).

endheader
time	pelvis_tilt	pelvis_list	pelvis_rotation	pelvis_tx	pelvis_ty	pelvis_tz	hip_flexion_r	hip_adduction_r	hip_rotation_r	knee_angle_r	knee_angle_r_beta	ankle_angle_r	subtalar_angle_r	mtp_angle_r	hip_flexion_l	hip_adduction_l	hip_rotation_l	knee_angle_l	knee_angle_l_beta	ankle_angle_l	subtalar_angle_l	mtp_angle_l
      0.00000000	      2.50746718	     -7.61269250	     -9.32093389	      2.16716384	      1.00861079	      1.01416730	     24.33108771	     11.20300954	    -12.26470935	     37.44809761	      0.65359260	      8.82133442	      8.42057731	      0.00000000	     -3.23950492	     -6.06505299	    -12.47870544	    109.35671095	      1.90863467	    -16.66502765	    -18.60405770	      0.00000000
      0.00666667	      1.80241816	     -8.10097065	     -9.92400907	      2.16362579	      1.00294810	      1.01499908	     24.78410341	     11.86457888	    -11.89785685	     40.35191913	      0.70427385	     11.55915645	      7.76851517	      0.00000000	      0.23982191	     -7.78122515	    -12.18904032	    112.91725327	      1.97077785	    -15.71170915	    -18.02235415	      0.00000000
      0.01333333	      0.87525354	     -8.54231939	    -10.46671662	      2.15999291	      0.99700333	      1.01583670	     25.34021020	     12.63977579	    -11.26907107	     42.92926178	      0.74925696	     14.14971926	      6.79051335	      0.00000000	      4.06194280	     -9.49864637	    -11.55497618	    116.34664658	      2.03063206	    -14.96424193	    -17.55716113	      0.00000000
      0.02000000	     -0.12329705	     -9.01681118	    -10.97567240	      2.15633674	      0.99126924	      1.01679353	     25.75878785	     13.58139097	    -10.42902419	     45.08497577	      0.78688127	     16.56191320	      5.70476621	      0.00000000	      8.04024901	    -11.30399741	    -10.62716782	    119.52561702	      2.08611556	    -14.25639296	    -16.94857834	      0.00000000
      0.02666667	     -1.08833535	     -9.47863860	    -11.40005469	      2.15280511	      0.98606507	      1.01772214	     25.90919045	     14.51784778	     -9.54222433	     46.83232447	      0.81737826	     18.86449742	      4.84192436	      0.00000000	     12.09051195	    -13.06346354	     -9.40009887	    122.34563076	      2.13533408	    -13.50532790	    -16.21055070	      0.00000000
      0.03333333	     -1.94709492	     -9.88031166	    -11.73353533	      2.14948353	      0.98170449	      1.01859749	     25.69442821	     15.34794348	     -8.61954323	     48.15089923	      0.84039173	     21.00477293	      4.17666840	      0.00000000	     16.13926459	    -14.67419953	     -7.96036358	    124.71489659	      2.17668557	    -12.78199649	    -15.48332896	      0.00000000
      0.04000000	     -2.61201614	    -10.20177723	    -11.96367378	      2.14642563	      0.97832575	      1.01932237	     25.02903362	     15.98564839	     -7.70533598	     49.07464830	      0.85651419	     22.99624247	      3.80196890	      0.00000000	     20.07987664	    -16.06218354	     -6.40225574	    126.58145116	      2.20926309	    -12.06372867	    -14.80454254	      0.00000000
      0.04666667	     -3.03917398	    -10.38168950	    -12.03268110	      2.14381842	      0.97613435	      1.01980283	     23.86107699	     16.32910119	     -6.80665378	     49.57203837	      0.86519529	     24.78297249	      3.61272117	      0.00000000	     23.83855339	    -17.06630354	     -4.79148436	    127.88974190	      2.23209708	    -11.34786465	    -14.27257300	      0.00000000
      0.05333333	     -3.24668204	    -10.41069160	    -11.96255548	      2.14170669	      0.97504627	      1.02006651	     22.23676188	     16.36492271	     -5.95024805	     49.68095602	      0.86709626	     26.30994168	      3.65052795	      0.00000000	     27.36346805	    -17.68064943	     -3.24893244	    128.64865546	      2.24534262	    -10.62873314	    -13.89888968	      0.00000000
      0.06000000	     -3.12759569	    -10.31356675	    -11.74305085	      2.14027941	      0.97533843	      1.02015386	     19.99670298	     16.09159408	     -5.18607170	     49.31866203	      0.86077304	     27.50206608	      3.95335430	      0.00000000	     30.42658464	    -17.93548401	     -1.89718772	    128.82021822	      2.24833695	     -9.98214283	    -13.83423073	      0.00000000
      0.06666667	     -2.88989183	    -10.01541607	    -11.41118218	      2.13939390	      0.97661906	      1.02014186	     17.45634023	     15.52052372	     -4.46679847	     48.57955088	      0.84787311	     28.29640130	      4.19711434	      0.00000000	     33.23069640	    -17.77239051	     -0.78370498	    128.47234719	      2.24226546	     -9.32307012	    -14.03744592	      0.00000000
      0.07333333	     -2.62278691	     -9.64036494	    -10.87862173	      2.13912446	      0.97861683	      1.02000814	     14.69738280	     14.80609079	     -3.94064845	     47.41368715	      0.82752495	     28.67599385	      4.53280628	      0.00000000	     35.86617109	    -17.32004122	      0.25008271	    127.69589840	      2.22871387	     -8.66573535	    -14.35042044	      0.00000000
      0.08000000	     -2.19116254	     -9.12076948	    -10.23514793	      2.13947277	      0.98150283	      1.01986773	     11.60111038	     13.88298841	     -3.55541509	     45.87770390	      0.80071699	     28.83268220	      5.02222285	      0.00000000	     38.06489455	    -16.54960349	      0.99867039	    126.46094074	      2.20715979	     -8.09054467	    -14.92616395	      0.00000000
      0.08666667	     -1.75323486	     -8.38391330	     -9.49908192	      2.14040507	      0.98489740	      1.01970041	      8.42335773	     12.72906848	     -3.33823190	     44.10365941	      0.76975407	     28.83406453	      5.65180266	      0.00000000	     39.99455741	    -15.44223954	      1.42956788	    124.82977339	      2.17869055	     -7.47490175	    -15.76050744	      0.00000000
      0.09333333	     -1.67335856	     -7.58985772	     -8.58377297	      2.14175460	      0.98817582	      1.01949325	      5.56348387	     11.64715385	     -3.35434136	     42.08515772	      0.73452457	     28.60505478	      5.96907779	      0.00000000	     42.18587697	    -14.09828858	      1.89973643	    122.95128969	      2.14590482	     -6.86244068	    -16.58546523	      0.00000000
